<svg version="1.1" id="Layer_1" xmlns:x="ns_extend;" xmlns:i="ns_ai;" xmlns:graph="ns_graphs;" xmlns="http://www.w3.org/2000/svg" xmlns:xlink="http://www.w3.org/1999/xlink" x="0px" y="0px" viewBox="0 0 620.4 88" style="enable-background:new 0 0 620.4 88;" xml:space="preserve">
 <style type="text/css">
  .st0{fill:#737373;}
	.st1{fill:#F25022;}
	.st2{fill:#7FBA00;}
	.st3{fill:#00A4EF;}
	.st4{fill:#FFB900;}
 </style>
 <metadata>
  <sfw xmlns="ns_sfw;">
   <slices>
   </slices>
   <sliceSourceBounds bottomLeftOrigin="true" height="88" width="620.4" x="-774.3" y="-178.8">
   </sliceSourceBounds>
  </sfw>
 </metadata>
 <g>
  <g>
   <path class="st0" d="M479.6,69.7h-9.4l-4.6-13.1h-20.2l-4.4,13.1h-9.3l19.3-51.5h9.6L479.6,69.7z M463.3,49.7l-7.1-20.5
			c-0.2-0.7-0.4-1.7-0.7-3.2h-0.1c-0.2,1.4-0.5,2.4-0.7,3.2l-7.1,20.5H463.3z">
   </path>
   <path class="st0" d="M512.8,36.5L493,63.3h19.8v6.5h-31.4v-3.1l20.3-27.1h-18.3V33h29.6V36.5z">
   </path>
   <path class="st0" d="M551.9,69.7h-8.3v-5.8h-0.1c-2.4,4.4-6.2,6.7-11.3,6.7c-8.7,0-13-5.2-13-15.6V33h8.3v21.1
			c0,6.6,2.5,9.9,7.6,9.9c2.5,0,4.5-0.9,6.1-2.7c1.6-1.8,2.4-4.2,2.4-7.1V33h8.3V69.7z">
   </path>
   <path class="st0" d="M584,40.9c-1-0.8-2.5-1.2-4.3-1.2c-2.5,0-4.5,1.1-6.2,3.3c-1.7,2.2-2.5,5.3-2.5,9.1v17.6h-8.3V33h8.3v7.6h0.1
			c0.8-2.6,2.1-4.6,3.7-6c1.7-1.4,3.6-2.2,5.7-2.2c1.5,0,2.7,0.2,3.4,0.7V40.9z">
   </path>
   <path class="st0" d="M620.4,53.6h-25c0.1,3.4,1.1,6,3.1,7.9c2,1.8,4.7,2.8,8.2,2.8c3.9,0,7.5-1.2,10.8-3.5v6.7
			c-3.3,2.1-7.8,3.2-13.3,3.2c-5.4,0-9.6-1.7-12.7-5c-3.1-3.3-4.6-8-4.6-14.1c0-5.7,1.7-10.4,5.1-14c3.4-3.6,7.6-5.4,12.6-5.4
			c5,0,8.9,1.6,11.7,4.8c2.8,3.2,4.1,7.7,4.1,13.5V53.6z M612.3,47.8c0-3-0.7-5.3-2.1-7c-1.4-1.7-3.3-2.5-5.7-2.5
			c-2.4,0-4.4,0.9-6.1,2.6c-1.7,1.7-2.7,4-3.1,6.9H612.3z">
   </path>
  </g>
  <path class="st0" d="M145.6,50.7l-2.5,7h-0.2c-0.4-1.6-1.2-4-2.4-6.8l-13.2-33.2h-12.9v52.9h8.6V37.9c0-2.1,0-4.4-0.1-7.3
		c-0.1-1.4-0.2-2.5-0.3-3.4h0.2c0.4,2.1,0.9,3.6,1.2,4.5l15.9,38.6h6l15.8-39c0.3-0.9,0.7-2.7,1-4.2h0.2c-0.2,3.9-0.3,7.4-0.4,9.5
		v33.6h9.1V17.5h-12.5L145.6,50.7z M180.3,32.4h8.9v37.9h-8.9V32.4z M184.8,16.4c-1.5,0-2.7,0.5-3.8,1.5c-1,1-1.6,2.2-1.6,3.7
		c0,1.4,0.5,2.7,1.6,3.6c1,1,2.3,1.4,3.8,1.4c1.5,0,2.8-0.5,3.8-1.4c1-1,1.6-2.2,1.6-3.6s-0.5-2.7-1.6-3.7
		C187.7,16.9,186.4,16.4,184.8,16.4 M220.7,32.1c-1.6-0.3-3.4-0.5-5-0.5c-4,0-7.7,0.9-10.8,2.7c-3.1,1.8-5.5,4.2-7.1,7.3
		c-1.6,3.2-2.5,6.8-2.5,11c0,3.6,0.8,6.8,2.4,9.8c1.6,2.9,3.8,5.2,6.7,6.8c2.8,1.6,6.1,2.4,9.8,2.4c4.2,0,7.9-0.9,10.8-2.5l0.1-0.1
		v-8.2l-0.3,0.3c-1.3,1-2.8,1.8-4.3,2.3c-1.6,0.5-3,0.8-4.2,0.8c-3.6,0-6.4-1-8.4-3.3c-2.1-2.2-3.1-5.2-3.1-9c0-3.9,1-7,3.2-9.2
		s4.9-3.4,8.4-3.4c2.9,0,5.8,1,8.5,2.9l0.3,0.3v-8.7l-0.1-0.1C223.8,33,222.5,32.4,220.7,32.1 M250.1,31.8c-2.2,0-4.2,0.7-6,2.1
		c-1.5,1.2-2.5,3-3.4,5.1h-0.1v-6.6h-8.9v37.9h8.9V51c0-3.3,0.7-6,2.2-8c1.5-2.1,3.4-3.1,5.8-3.1c0.8,0,1.6,0.2,2.7,0.3
		c1,0.3,1.6,0.5,2.1,0.9l0.3,0.3v-8.9l-0.2-0.1C252.9,32,251.6,31.8,250.1,31.8 M274.4,31.6c-6.2,0-11.2,1.8-14.7,5.5
		c-3.6,3.6-5.3,8.6-5.3,14.9c0,5.9,1.8,10.7,5.2,14.2c3.4,3.4,8.1,5.2,13.9,5.2c6.1,0,11-1.8,14.5-5.5c3.6-3.7,5.3-8.6,5.3-14.7
		c0-6-1.6-10.8-5-14.3C285,33.3,280.3,31.6,274.4,31.6 M281.5,60.8c-1.6,2.1-4.2,3.2-7.5,3.2c-3.2,0-5.8-1-7.7-3.3
		c-1.8-2.1-2.7-5.2-2.7-9.1c0-4,1-7.1,2.7-9.3c1.8-2.2,4.4-3.3,7.6-3.3c3.2,0,5.6,1,7.4,3.2c1.8,2.1,2.7,5.2,2.7,9.2
		C284,55.4,283.2,58.6,281.5,60.8 M313.1,48.2c-2.8-1.2-4.6-2.1-5.4-2.8c-0.7-0.7-1-1.6-1-2.9c0-1,0.4-2.1,1.4-2.7s2.2-1,3.9-1
		c1.5,0,3.1,0.3,4.6,0.7c1.5,0.4,2.9,1,4,1.8l0.3,0.3v-8.4l-0.2-0.1c-1-0.4-2.4-0.8-4-1.2c-1.6-0.3-3.2-0.4-4.4-0.4
		c-4.2,0-7.7,1-10.5,3.3c-2.7,2.1-4,5-4,8.4c0,1.8,0.3,3.4,0.9,4.7c0.6,1.3,1.5,2.5,2.7,3.6c1.2,1,3,2.1,5.5,3.1
		c2.1,0.9,3.6,1.6,4.6,2.1c1,0.5,1.6,1.2,2.1,1.6c0.3,0.5,0.5,1.2,0.5,2.1c0,2.5-1.9,3.8-5.8,3.8c-1.5,0-3.1-0.3-4.9-0.9
		c-1.8-0.6-3.6-1.5-5-2.5l-0.3-0.3v8.7l0.2,0.1c1.3,0.6,2.9,1,4.8,1.5c1.9,0.3,3.6,0.6,5.1,0.6c4.6,0,8.4-1,11-3.3
		c2.7-2.2,4.2-5,4.2-8.6c0-2.5-0.7-4.8-2.2-6.5C319.1,51.2,316.6,49.5,313.1,48.2 M346.8,31.6c-6.2,0-11.2,1.8-14.7,5.5
		s-5.3,8.6-5.3,14.9c0,5.9,1.8,10.7,5.2,14.2c3.4,3.4,8.1,5.2,13.9,5.2c6.1,0,11-1.8,14.5-5.5c3.6-3.7,5.3-8.6,5.3-14.7
		c0-6-1.6-10.8-5-14.3C357.4,33.3,352.7,31.6,346.8,31.6 M353.8,60.8c-1.6,2.1-4.2,3.2-7.5,3.2c-3.3,0-5.8-1-7.7-3.3
		c-1.8-2.1-2.7-5.2-2.7-9.1c0-4,1-7.1,2.7-9.3c1.8-2.2,4.4-3.3,7.6-3.3c3.1,0,5.6,1,7.4,3.2c1.8,2.1,2.7,5.2,2.7,9.2
		C356.4,55.4,355.5,58.6,353.8,60.8 M413.2,39.7v-7.3h-9V21.2l-0.3,0.1l-8.5,2.5l-0.2,0.1v8.6h-13.4v-4.8c0-2.2,0.5-3.9,1.5-5
		c1-1.1,2.4-1.6,4.2-1.6c1.2,0,2.5,0.3,4,0.9l0.3,0.2v-7.7l-0.2-0.1c-1.2-0.4-2.9-0.7-5-0.7c-2.7,0-5,0.6-7.1,1.6
		c-2.1,1.2-3.7,2.7-4.9,4.9c-1.2,2.1-1.8,4.4-1.8,7.1v5.3h-6.2v7.3h6.2v30.7h9V39.7h13.4v19.5c0,8,3.8,12.1,11.3,12.1
		c1.2,0,2.5-0.2,3.8-0.4c1.3-0.3,2.3-0.6,2.8-0.9l0.1-0.1v-7.3l-0.3,0.3c-0.5,0.3-1,0.6-1.8,0.8c-0.7,0.2-1.3,0.3-1.8,0.3
		c-1.8,0-3-0.4-3.9-1.4c-0.8-1-1.2-2.5-1.2-4.9V39.7L413.2,39.7L413.2,39.7z">
  </path>
  <g>
   <path class="st1" d="M0,0h41.8v41.8H0V0z">
   </path>
   <path class="st2" d="M46.2,0H88v41.8H46.2V0z">
   </path>
   <path class="st3" d="M0,46.2h41.8V88H0V46.2z">
   </path>
   <path class="st4" d="M46.2,46.2H88V88H46.2V46.2z">
   </path>
  </g>
 </g>
</svg>