<svg id="Layer_1" viewBox="0 0 24 24" xmlns="http://www.w3.org/2000/svg" data-name="Layer 1"><path d="m23.5 9c.276 0 .5-.224.5-.5s-.224-.5-.5-.5h-1.5v-1.5c0-.171-.032-.334-.051-.5h1.551c.276 0 .5-.224.5-.5s-.224-.5-.5-.5h-1.776c-.453-1.271-1.453-2.27-2.724-2.724v-1.776c0-.276-.224-.5-.5-.5s-.5.224-.5.5v1.551c-.166-.019-.329-.051-.5-.051h-1.5v-1.5c0-.276-.224-.5-.5-.5s-.5.224-.5.5v1.5h-2.5v-1.5c0-.276-.224-.5-.5-.5s-.5.224-.5.5v1.5h-2.5v-1.5c0-.276-.224-.5-.5-.5s-.5.224-.5.5v1.5h-1.5c-.171 0-.334.032-.5.051v-1.551c0-.276-.224-.5-.5-.5s-.5.224-.5.5v1.776c-1.271.453-2.27 1.453-2.724 2.724h-1.776c-.276 0-.5.224-.5.5s.224.5.5.5h1.551c-.019.166-.051.329-.051.5v1.5h-1.5c-.276 0-.5.224-.5.5s.224.5.5.5h1.5v2.5h-1.5c-.276 0-.5.224-.5.5s.224.5.5.5h1.5v2.5h-1.5c-.276 0-.5.224-.5.5s.224.5.5.5h1.5v1.5c0 .171.032.334.051.5h-1.551c-.276 0-.5.224-.5.5s.224.5.5.5h1.776c.453 1.271 1.453 2.27 2.724 2.724v1.776c0 .276.224.5.5.5s.5-.224.5-.5v-1.551c.166.019.329.051.5.051h1.5v1.5c0 .276.224.5.5.5s.5-.224.5-.5v-1.5h2.5v1.5c0 .276.224.5.5.5s.5-.224.5-.5v-1.5h2.5v1.5c0 .276.224.5.5.5s.5-.224.5-.5v-1.5h1.5c.171 0 .334-.032.5-.051v1.551c0 .276.224.5.5.5s.5-.224.5-.5v-1.776c1.271-.453 2.27-1.453 2.724-2.724h1.776c.276 0 .5-.224.5-.5s-.224-.5-.5-.5h-1.551c.019-.166.051-.329.051-.5v-1.5h1.5c.276 0 .5-.224.5-.5s-.224-.5-.5-.5h-1.5v-2.5h1.5c.276 0 .5-.224.5-.5s-.224-.5-.5-.5h-1.5v-2.5zm-6 12h-11c-1.93 0-3.5-1.57-3.5-3.5v-11c0-1.93 1.57-3.5 3.5-3.5h11c1.93 0 3.5 1.57 3.5 3.5v11c0 1.93-1.57 3.5-3.5 3.5zm-1-11.734v-.516c0-1.517-1.233-2.75-2.75-2.75-.638 0-1.244.225-1.732.627-.007 0-.012-.004-.019-.004-.006 0-.012.003-.018.004-.487-.402-1.094-.627-1.732-.627-1.517 0-2.75 1.233-2.75 2.75v.516c-.933.595-1.5 1.617-1.5 2.734 0 .88.362 1.717 1 2.33v.42c0 1.792 1.458 3.25 3.25 3.25.614 0 1.201-.175 1.721-.507.01 0 .019.006.03.006.01 0 .019-.005.029-.006.519.332 1.106.507 1.72.507 1.792 0 3.25-1.458 3.25-3.25v-.42c.638-.613 1-1.45 1-2.33 0-1.117-.567-2.14-1.5-2.734zm-8.5 5.484v-.644c0-.148-.066-.29-.181-.385-.521-.433-.819-1.06-.819-1.722 0-.846.471-1.612 1.228-2 .167-.086.272-.258.272-.445v-.805c0-.965.785-1.75 1.75-1.75.475 0 .918.205 1.25.553v9.043c-.376.26-.802.403-1.25.403-1.241 0-2.25-1.01-2.25-2.25zm8.181-1.028c-.114.095-.181.236-.181.385v.644c0 1.24-1.009 2.25-2.25 2.25-.448 0-.873-.143-1.25-.402v-9.045c.331-.349.774-.554 1.25-.554.965 0 1.75.785 1.75 1.75v.805c0 .188.105.359.272.445.757.388 1.228 1.154 1.228 2 0 .662-.299 1.289-.819 1.722z"/></svg>