<svg xmlns="http://www.w3.org/2000/svg" width="201" height="44" viewBox="0 0 201 44"><g><g><g><path fill="#132132" d="M73.623 19.66c-.143.117-.26.24-.025.375 1.638.944 1.549 2.99 1.549 4.182v5.27a3.87 3.87 0 0 1-3.87 3.871h-9.384a.538.538 0 0 1-.538-.54V7.639c0-.3.243-.542.542-.54 1.89.01 8.155.044 9.7.044 1.825 0 3.55 1.637 3.55 3.786v5.13c0 1.69-.386 2.666-1.524 3.6zM70.1 23.84a1.62 1.62 0 0 0-1.62-1.621h-1.715a.394.394 0 0 0-.395.394v5.596c0 .218.177.395.395.395h1.714a1.62 1.62 0 0 0 1.621-1.621zm0-10.366a1.62 1.62 0 0 0-1.62-1.621h-1.715a.395.395 0 0 0-.395.394V17.1c0 .218.177.395.395.395h1.714c.896 0 1.621-.726 1.621-1.621zm8.292 19.877a.54.54 0 0 1-.54-.54V11.147a4.063 4.063 0 0 1 4.052-4.051h5.662a4.064 4.064 0 0 1 4.052 4.05v21.665a.54.54 0 0 1-.54.54h-4.124a.54.54 0 0 1-.54-.54l-.002-7.531a.27.27 0 0 0-.27-.27H83.1a.27.27 0 0 0-.27.27l-.008 7.532a.54.54 0 0 1-.54.54zm4.47-13.292c0 .146.122.264.27.264h3.2c.149 0 .27-.118.27-.264v-6.345c0-.984-.817-1.861-1.824-1.861-1.058 0-1.916.917-1.916 1.95zM20.94 14.538c.226-1.056 1.41-4.036 0-4.76-6.333-3.247-11.025 11.897-9.19 16.527 1.053 2.656 4.105 5.94 8.033 2.602.69-.585 1.655-2.078 1.657-2.081.297-.48.987-.718 1.458-.408.22.144.523.387.745.57a.722.722 0 0 1 .262.633c-.024.233-.864 3.191-3.784 4.97-2.92 1.78-9.944.614-12.2-5.212-1.601-4.132-.204-10.478 3.32-16.408 4.378-7.363 12.854-3.608 13.8-1.194.862 2.2-.449 4.586-1.352 6.099-.195.327-.396.653-1.394.275-.997-.378-1.616-.588-1.355-1.613zm36.065 7.502c-.875 5.469-2.98 18.678-3.045 19.102-.077.503-.09 1.179-.702 1.337-1.817.472-2.152 1.664-2.945 1.664-.794 0-.608-.49-.605-.509.086-.53 1.788-11.339 1.858-11.817-3.313 3.225-7.097.537-7.927-1.582-.465.755-3.36 4.998-8.054 2.075-.744-.464-1.348-1.03-1.654-1.83-.53.77-3.25 4.344-6.8 2.096-1.79-1.134-2.524-2.192-2.033-5.21.246-1.514 1.374-8.586 1.543-9.639.118-.727.565-1.137 1.805-.576.329.149 1.953 1.138 1.79 2.115-.165.977-1.21 8.023-1.357 8.978-.323 2.09 3.982 6.093 6.036-7.172.044-.285.268-1.359.322-1.684.055-.326 0-.402-.241-.402-.304 0-1.377.007-1.743.007-.364 0-.475-.576-.316-1.566.159-.99.324-1.14.71-1.14h1.801c.336-.01.29-.198.373-.718.082-.52.566-3.415.674-4.22.108-.807.597-1.1 2.076-.172 1.479.927 1.663 1.409 1.58 1.892-.082.483-.382 2.351-.464 2.858-.082.507.308.36.308.36h2.445c.387 0 .724-.054.533 1.14-.19 1.193-.472 1.565-.923 1.565h-2.53c-.378 0-.473.713-.544 1.147-.122.797-.98 6.226-1.192 7.665-.357 2.255 4.686 7.239 7.276-8.495.237-1.443.68-2.779 1.659-2.779.735 0 1.866.47 2.385.962.311.296.463.716.314 1.119-.25.674-.628 1.807-.82 2.943-.301 1.788-1.04 6.045-1.078 7.349-.04 1.303 3.626 5.412 5.962-9.396.192-1.215.715-2.977 1.693-2.977.749 0 1.868.454 2.394.949.297.28.435.682.284 1.06-.192.483-.444 1.185-.569 1.825-.127.653-.25 1.498-.279 1.676zM194.617 3.05v34.673c0 1.596-1.258 2.891-2.808 2.891H56.305l.475-3.07h134.514c.192 0 .346-.16.346-.357l.147-33.956H3.696v34.312h44.709l-.474 3.071H3.528c-1.551 0-2.808-1.295-2.808-2.89V3.05C.72 1.454 1.977.16 3.528.16h188.28c1.551 0 2.809 1.294 2.809 2.89zM27.947 14.783c-1.108-.987-.348-4.97 1.036-4.817.339.038-.295.895 1.189 1.852 1.047.676 1.03 1.494.971 1.844-.08.484-.155.803-.233 1.191-.155.778-1.854.918-2.963-.07zm127.12 13.689c0 .036-.004.07-.005.106h1.752v.644c0 2.266.789 3.208 1.199 3.77.11.15-.002.361-.189.361H145.77a4.863 4.863 0 0 1-4.866-4.86V11.937a4.863 4.863 0 0 1 4.866-4.862h4.432a4.863 4.863 0 0 1 4.866 4.862zm-5.024-15.286c0-.747-.605-1.352-1.351-1.352h-1.42c-.746 0-1.351.605-1.351 1.352v14.059c0 .746.605 1.351 1.35 1.351h1.42c.747 0 1.352-.605 1.352-1.351zm13.805-5.473v19.594c0 .746.605 1.35 1.35 1.35h1.045a1.35 1.35 0 0 0 1.351-1.35V7.712a.54.54 0 0 1 .541-.54h3.935a.54.54 0 0 1 .54.54v21.65a4.053 4.053 0 0 1-4.052 4.052h-5.674a4.053 4.053 0 0 1-4.052-4.053V7.712a.54.54 0 0 1 .54-.54h3.936a.54.54 0 0 1 .54.54zm16.315 4.673v4.92c0 .299.242.54.54.54h3.965a.54.54 0 0 1 .541.541v3.676a.54.54 0 0 1-.54.54h-3.966a.54.54 0 0 0-.54.541v4.921c0 .299.242.54.54.54h6.305a.54.54 0 0 1 .541.541v3.676a.54.54 0 0 1-.54.54l-11.334-.002a.54.54 0 0 1-.54-.54V7.677c0-.298.237-.54.535-.54 2.076-.008 9.561-.032 11.34-.038.3 0 .54.241.54.54v3.664c0 .298-.24.54-.54.54h-6.308a.539.539 0 0 0-.54.54zM105.516 24.92c.427 1.155 2.445 6.618 2.913 7.896a.398.398 0 0 1-.376.535h-4.214a.81.81 0 0 1-.76-.53l-2.723-7.402a.356.356 0 0 0-.689.122v7.27a.54.54 0 0 1-.54.54H95.19a.54.54 0 0 1-.54-.54V7.636a.54.54 0 0 1 .54-.54h9.151c2.27 0 4.11 1.84 4.107 4.11l-.01 8.644c0 3.073-2.133 4.414-2.803 4.76a.25.25 0 0 0-.12.31zm-2.094-10.906a2.162 2.162 0 0 0-2.162-2.162h-1.307a.27.27 0 0 0-.27.27v8.012c0 .15.12.27.27.27h1.307a2.162 2.162 0 0 0 2.162-2.161zm19.823 6.021c1.64.944 1.55 2.99 1.55 4.182v5.27a3.871 3.871 0 0 1-3.873 3.871h-9.39a.538.538 0 0 1-.539-.54V7.639c0-.3.243-.542.543-.54 1.89.01 8.16.044 9.706.044 1.827 0 3.553 1.637 3.553 3.786v5.13c0 1.69-.386 2.666-1.525 3.6-.143.118-.26.241-.025.376zm-3.506 3.805c0-.896-.726-1.621-1.62-1.621h-1.715a.394.394 0 0 0-.395.394v5.596c0 .218.177.395.395.395h1.714c.895 0 1.621-.726 1.621-1.621zm0-10.366c0-.896-.726-1.621-1.62-1.621h-1.715a.395.395 0 0 0-.395.394V17.1c0 .218.177.395.395.395h1.714c.895 0 1.621-.726 1.621-1.621zm20.411-5.951c-.727 1.016-1.314 2.258-1.314 3.6v.455a.264.264 0 0 1-.263.266h-5.646a.538.538 0 0 0-.538.54v4.922c0 .298.241.54.54.54h3.962a.54.54 0 0 1 .54.54v3.676a.54.54 0 0 1-.54.54h-3.962a.54.54 0 0 0-.54.541v4.921c0 .299.241.54.54.54h5.638a.27.27 0 0 1 .27.27v.42c0 1.36.598 2.617 1.343 3.64a.268.268 0 0 1-.217.427l-12.058-.002a.54.54 0 0 1-.54-.54V7.677c0-.298.238-.54.535-.54l12.034-.038c.218 0 .344.245.216.423z"></path></g><g><path fill="#132132" d="M198.505 38.584l.518 1.005h-.32l-.559-1.098h-.562v1.098h-.292V36.96h.875c.445 0 .761.304.761.761 0 .39-.235.64-.507.705v.012s.03.033.086.146zm.125-.863c0-.311-.198-.498-.498-.498h-.55v1.021h.55c.3 0 .498-.198.498-.523z"></path></g><g><path fill="#132132" d="M198.053 35.89c1.304 0 2.34 1.053 2.34 2.381 0 1.332-1.036 2.377-2.34 2.377-1.28 0-2.313-1.045-2.313-2.377 0-1.328 1.033-2.381 2.313-2.381zm2.045 2.381c0-1.183-.887-2.101-2.045-2.101-1.135 0-2.017.918-2.017 2.101 0 1.187.882 2.102 2.017 2.102 1.158 0 2.045-.915 2.045-2.102z"></path></g><g><path fill="#132132" d="M198.505 38.584l.518 1.005h-.32l-.559-1.098h-.562v1.098h-.292V36.96h.875c.445 0 .761.304.761.761 0 .39-.235.64-.507.705v.012s.03.033.086.146zm.125-.863c0-.311-.198-.498-.498-.498h-.55v1.021h.55c.3 0 .498-.198.498-.523z"></path></g><g><path fill="#132132" d="M198.505 38.584l.518 1.005h-.32l-.559-1.098h-.562v1.098h-.292V36.96h.875c.445 0 .761.304.761.761 0 .39-.235.64-.507.705v.012s.03.033.086.146zm.125-.863c0-.311-.198-.498-.498-.498h-.55v1.021h.55c.3 0 .498-.198.498-.523z"></path></g></g></g></svg>