<svg id="Layer_1" viewBox="0 0 24 24" xmlns="http://www.w3.org/2000/svg" data-name="Layer 1"><path d="m21.5 13.002h-4c-1.379 0-2.5 1.122-2.5 2.5v2.001c-.418-.314-.938-.501-1.5-.501h-2.5v-1.915c0-.663-.426-1.24-1.061-1.434l-2.157-.661 1.541-5.99h1.269c.693 0 1.365-.203 1.941-.588l2.245-1.496c.229-.153.292-.463.139-.693-.154-.231-.466-.292-.693-.139l-2.245 1.496c-.412.275-.892.42-1.387.42h-4.126c-.936 0-1.758.664-1.951 1.56l-.732 2.849c-.247 1.125.302 2.24 1.302 2.753l-.832 2.496c-.068.205-.259.342-.475.342h-3.279c-.276 0-.499.224-.499.5s.224.5.5.5h3.279c.646 0 1.218-.412 1.423-1.025l.825-2.477 3.619 1.11c.211.065.354.257.354.478v1.915h-.5c-1.378 0-2.5 1.122-2.5 2.5v1.013c-.419-.317-.935-.513-1.5-.513h-3.001c-1.378-.001-2.499 1.121-2.499 2.499v1c0 .276.224.5.5.5s.5-.224.5-.5v-1c0-.827.673-1.5 1.5-1.5h3c.827 0 1.5.673 1.5 1.5v1c0 .276.224.5.5.5s.5-.224.5-.5v-4c0-.827.673-1.5 1.5-1.5h4c.827 0 1.5.673 1.5 1.5v4c0 .276.224.5.5.5s.5-.224.5-.5v-8c0-.827.673-1.5 1.5-1.5h4c.827 0 1.5.673 1.5 1.5v8c0 .276.224.5.5.5s.5-.224.5-.5v-8c0-1.378-1.121-2.5-2.5-2.5zm-16.745-2.36.733-2.85c.099-.458.51-.79.978-.79h1.824l-1.465 5.696-1.066-.327c-.735-.241-1.165-.992-1.003-1.729zm3.744-5.64c1.378 0 2.5-1.122 2.5-2.5s-1.121-2.5-2.5-2.5-2.5 1.122-2.5 2.5 1.122 2.5 2.5 2.5zm0-4c.827 0 1.5.673 1.5 1.5s-.673 1.5-1.5 1.5-1.5-.673-1.5-1.5.673-1.5 1.5-1.5zm9 10c.276 0 .5-.224.5-.5v-4.51l4.438-2.046c.347-.188.562-.55.562-.944s-.216-.756-.581-.954l-4.073-1.995c-.068-.033-.269-.051-.345-.051-.435 0-1 .306-1 1.125v9.375c0 .276.224.5.5.5zm.5-9.903c0-.048.049-.082.102-.056l3.878 1.903s.102.063-.008.114l-3.972 1.844v-3.804z"/></svg>