<?xml version="1.0" encoding="utf-8"?>
<!-- Generator: Adobe Illustrator 25.4.1, SVG Export Plug-In . SVG Version: 6.00 Build 0)  -->
<svg version="1.1" id="Layer_1" xmlns="http://www.w3.org/2000/svg" xmlns:xlink="http://www.w3.org/1999/xlink" x="0px" y="0px"
	 viewBox="0 0 434.2 138.4" style="enable-background:new 0 0 434.2 138.4;" xml:space="preserve">
<style type="text/css">
	.st0{fill:#FFFFFF;}
	.st1{fill:#00B0F0;}
</style>
<g id="Layer_2_00000041257674961770302640000003948076626349731481_">
	<g id="Layer_1-2">
		<path class="st0" d="M208.1,37.1h-24.5V6.9l0,0c0-3.9-3.1-7-7-7s-7,3.1-7,7l0,0v99.6c0,3.9,3.1,7,7,7s7-3.1,7-7v-56h24.5
			c14.5,0,20.9,6.3,20.9,17v39.1l0,0c0,3.9,3.1,7,7,7s7-3.1,7-7V67.5C243.1,48.4,231.6,37.1,208.1,37.1z"/>
		<path class="st0" d="M310.1,37.9h-19.9c-19.2,0-31.1,11.1-31.1,34.3s12,34.5,31.1,34.5h31.7v3.3c0,10.3-3.5,14.6-14.3,14.6h-41.1
			c-3.8-0.1-7.1,2.8-7.2,6.7c-0.1,3.8,2.8,7.1,6.7,7.2c0.2,0,0.4,0,0.5,0h42.8c20.1,0,27.2-8,27.2-28.4V68.6
			C336.4,47.9,327.2,37.9,310.1,37.9z M321.9,93.6h-30.3c-12.4,0-18-6.3-18-20.9s5.6-20.9,18-20.9h14.3c11.5,0,16,5,16,16.7
			L321.9,93.6z"/>
		<path class="st0" d="M384.9,52.5h41.9c4,0,7.3-3.3,7.3-7.3c0-4-3.3-7.3-7.3-7.3c0,0,0,0,0,0h-42c-17.6,0-24.7,8.5-24.7,22.1
			c0,11.6,5.2,22.1,26.1,22.1h17.9c7.6,0,10.8,2.4,10.8,8.5s-2.9,8.3-9.9,8.3h-44.2c-4.1-0.2-7.5,3-7.7,7.1c-0.2,4.1,3,7.5,7.1,7.7
			c0.2,0,0.4,0,0.5,0H405c17.8,0,24.8-9.5,24.8-23c0-11.8-5.3-21.4-26.2-21.4h-17.8c-8.5,0-10.8-2.9-10.8-8.2
			C375,55.3,377.9,52.5,384.9,52.5z"/>
		<path class="st1" d="M66,22.6L2.1,71.7c-2,1.5-2.4,4.4-0.8,6.4s4.4,2.4,6.4,0.8l64-49.1c2-1.5,2.4-4.4,0.8-6.4l0,0
			C70.9,21.5,68.1,21.1,66,22.6C66,22.6,66,22.6,66,22.6z"/>
		<path class="st1" d="M77.7,41.2c-1.5-2-4.4-2.4-6.4-0.8L2.1,93.5c-2,1.5-2.4,4.4-0.8,6.4c1.5,2,4.4,2.4,6.4,0.8l69.2-53.1
			C78.8,46.1,79.2,43.2,77.7,41.2z"/>
		<path class="st1" d="M0.9,56.4c1.5,2,4.4,2.4,6.4,0.8c0,0,0,0,0,0l61.2-46.9L103.4,37L77.5,56.9c-2.1,1.4-2.7,4.2-1.3,6.3
			c1.4,2.1,4.2,2.7,6.3,1.3c0.2-0.1,0.4-0.3,0.5-0.4l30.6-23.5l0,0l0.3-0.3l0,0c0.2-0.2,0.3-0.3,0.5-0.5c1.5-2,1.1-4.9-0.8-6.4
			L71.3,0.9c-0.6-0.5-1.4-0.8-2.2-0.9l0,0h-0.4h-0.4H68l0,0c-0.8,0.1-1.5,0.4-2.2,0.9L1.8,50C-0.2,51.5-0.6,54.4,0.9,56.4
			C0.9,56.4,0.9,56.4,0.9,56.4z"/>
		<path class="st1" d="M130.3,59.4l-64,49.1c-2,1.5-2.4,4.4-0.8,6.4l0,0c1.5,2,4.4,2.4,6.4,0.8l64-49.1c2-1.5,2.4-4.4,0.8-6.4
			C135.1,58.3,132.3,57.9,130.3,59.4L130.3,59.4z"/>
		<path class="st1" d="M60.2,97.1c1.5,2,4.4,2.4,6.4,0.8l69.3-53.1c2-1.5,2.4-4.4,0.8-6.4c-1.5-2-4.4-2.4-6.4-0.8L61.1,90.7
			C59.1,92.2,58.7,95.1,60.2,97.1z"/>
		<path class="st1" d="M137,82L137,82c-1.5-2-4.4-2.4-6.4-0.8l-61.2,46.9l-34.9-26.8l25.9-19.9c2-1.5,2.4-4.4,0.8-6.4
			c-1.5-2-4.4-2.4-6.4-0.8L24.2,97.7l0,0c-0.1,0.1-0.2,0.2-0.3,0.3l0,0c-0.2,0.2-0.3,0.3-0.5,0.5c-1.5,2-1.1,4.8,0.8,6.4l42.4,32.5
			c0.6,0.5,1.4,0.8,2.2,0.9l0,0h0.4h0.4H70l0,0c0.8-0.1,1.5-0.4,2.2-0.9l64-49.1C138.1,86.8,138.5,84,137,82z"/>
	</g>
</g>
</svg>
