<?xml version="1.0" encoding="UTF-8"?> <svg xmlns="http://www.w3.org/2000/svg" id="Layer_1" data-name="Layer 1" version="1.1" viewBox="0 0 100 100"><defs><style> .cls-1 { fill: #000; stroke-width: 0px; } </style></defs><path class="cls-1" d="M49.69,88.4c-2.91,0-5.28-2.37-5.28-5.28s2.37-5.28,5.28-5.28,5.28,2.37,5.28,5.28-2.37,5.28-5.28,5.28ZM49.69,80.28c-1.57,0-2.84,1.27-2.84,2.84s1.27,2.84,2.84,2.84,2.84-1.27,2.84-2.84-1.27-2.84-2.84-2.84Z"></path><path class="cls-1" d="M78.7,88.4c-2.91,0-5.28-2.37-5.28-5.28s2.37-5.28,5.28-5.28,5.28,2.37,5.28,5.28-2.37,5.28-5.28,5.28ZM78.7,80.28c-1.57,0-2.84,1.27-2.84,2.84s1.27,2.84,2.84,2.84,2.84-1.27,2.84-2.84-1.27-2.84-2.84-2.84Z"></path><path class="cls-1" d="M82.88,62.57h-42.29v-2.44h42.29c1.36,0,2.54-.87,2.94-2.18l7.81-25.31c.19-.61.07-1.27-.31-1.79-.38-.52-.97-.81-1.61-.81H27.26v-2.44h64.44c1.42,0,2.72.66,3.57,1.8.85,1.15,1.1,2.59.69,3.95l-7.81,25.31c-.72,2.33-2.83,3.9-5.27,3.9Z"></path><path class="cls-1" d="M82.63,74.15h-33.87c-2.69,0-5.08-1.61-6.09-4.1L22.29,19.81H6c-.67,0-1.22-.55-1.22-1.22s.55-1.22,1.22-1.22h17.93l21,51.76c.63,1.54,2.17,2.58,3.83,2.58h33.87c.67,0,1.22.55,1.22,1.22s-.55,1.22-1.22,1.22Z"></path><rect class="cls-1" x="41.99" y="27.62" width="2.44" height="35.02" transform="translate(-13.8 19.57) rotate(-22.09)"></rect><rect class="cls-1" x="51.52" y="27.53" width="2.44" height="35.36" transform="translate(-13.13 23.14) rotate(-22.08)"></rect><rect class="cls-1" x="60.97" y="27.54" width="2.44" height="35.1" transform="translate(-12.39 26.68) rotate(-22.08)"></rect><rect class="cls-1" x="70.47" y="27.62" width="2.44" height="35.02" transform="translate(-11.71 30.28) rotate(-22.09)"></rect><rect class="cls-1" x="79.44" y="27.64" width="2.44" height="32.34" transform="translate(-10.55 33.54) rotate(-22.08)"></rect><rect class="cls-1" x="86.26" y="28.16" width="2.44" height="18.16" transform="translate(-7.58 35.61) rotate(-22.08)"></rect></svg> 