<?xml version="1.0" encoding="UTF-8"?> <svg xmlns="http://www.w3.org/2000/svg" id="Layer_1" data-name="Layer 1" version="1.1" viewBox="0 0 100 100"><defs><style> .cls-1 { fill: #000; stroke-width: 0px; } </style></defs><path class="cls-1" d="M94.47,88.47H5.53c-.62,0-1.12-.5-1.12-1.12s.5-1.12,1.12-1.12h2.07v-5.08s-.01-.1-.01-.15c0-.62.5-1.12,1.12-1.12h2.07v-5.24c0-.62.5-1.12,1.12-1.12h5.24v-20.79h-1.3c-.62,0-1.12-.5-1.12-1.12v-5.93h-2.87c-.62,0-1.12-.5-1.12-1.12v-5.24h-2.04c-.62,0-1.12-.5-1.12-1.12v-6.36c0-.42.23-.8.61-1L49.47,9.65c.32-.16.7-.16,1.02,0l41.29,21.2c.37.19.61.58.61,1v6.36c0,.62-.5,1.12-1.12,1.12h-2.04v5.24c0,.62-.5,1.12-1.12,1.12h-2.89v5.93c0,.62-.5,1.12-1.12,1.12h-1.3v20.79h5.24c.62,0,1.12.5,1.12,1.12v5.24h2.12c.62,0,1.12.5,1.12,1.12v5.24h2.07c.62,0,1.12.5,1.12,1.12s-.5,1.12-1.12,1.12ZM9.84,86.23h80.32v-4.12H9.84v4.12ZM68.02,79.88h18.9v-4.12h-18.9v4.12ZM61.66,79.88h4.13v-5.24c0-.62.5-1.12,1.12-1.12h5.24v-20.79h-1.3c-.62,0-1.12-.5-1.12-1.12v-5.93h-12v5.93c0,.62-.5,1.12-1.12,1.12h-1.3v20.79h5.24c.62,0,1.12.5,1.12,1.12v5.24ZM40.52,79.88h18.9v-4.12h-18.9v4.12ZM34.15,79.88h4.13v-5.24c0-.62.5-1.12,1.12-1.12h5.24v-20.79h-1.3c-.62,0-1.12-.5-1.12-1.12v-5.93h-12v5.93c0,.62-.5,1.12-1.12,1.12h-1.3v20.79h5.24c.62,0,1.12.5,1.12,1.12v5.24ZM13.02,79.88h18.9v-4.12H13.02v4.12ZM74.38,73.52h6.18v-20.79h-6.18v20.79ZM46.88,73.52h6.18v-20.79h-6.18v20.79ZM19.37,73.52h6.18v-20.79h-6.18v20.79ZM71.96,50.49h11.03v-4.81h-11.03v4.81ZM44.46,50.49h11.03v-4.81h-11.03v4.81ZM16.95,50.49h11.03v-4.81h-11.03v4.81ZM12.96,43.44h74.03v-4.12H12.96v4.12ZM9.81,37.08h80.34v-4.55L49.98,11.91,9.81,32.53v4.55Z"></path></svg> 