<?xml version="1.0" encoding="UTF-8"?> <svg xmlns="http://www.w3.org/2000/svg" id="Layer_1" data-name="Layer 1" version="1.1" viewBox="0 0 100 100"><defs><style> .cls-1 { fill: #000; stroke-width: 0px; } </style></defs><path class="cls-1" d="M84.05,88.61h-13.09c-.64,0-1.15-.52-1.15-1.15v-20.09c0-.64.52-1.15,1.15-1.15s1.15.52,1.15,1.15v18.94h10.78v-18.81c0-.64.52-1.15,1.15-1.15h6.62v-13.24c.02-1.05-.19-2.94-1.86-4.65-2.18-2.23-6.2-3.4-11.64-3.4-4.91,0-8.49,1.1-10.62,3.26-.74.75-1.23,1.54-1.55,2.3l-1.12,11.68s0,.03,0,.05v10.42c0,.64-.52,1.15-1.15,1.15h-4.48v13.52c0,.64-.52,1.15-1.15,1.15h-9.7c-.64,0-1.15-.52-1.15-1.15v-13.52h-4.49c-.64,0-1.15-.52-1.15-1.15v-10.12c0-.13,0-.29,0-.5-.02-.97.23-4.41,4.26-6.41,1.84-.97,4.24-1.47,7.11-1.47h.56c2.88,0,5.29.5,7.14,1.49,1.01.5,1.78,1.09,2.36,1.71l.36-3.74h-.28c-.01-.88.09-2.2.63-3.64l.05-.5c.04-.41.28-.74.62-.92.38-.66.87-1.33,1.5-1.96,2.59-2.62,6.71-3.95,12.27-3.95,6.16,0,10.63,1.38,13.29,4.1,2.26,2.31,2.55,4.9,2.52,6.23v14.42c0,.64-.52,1.15-1.16,1.15h-6.62v18.81c0,.64-.52,1.15-1.15,1.15ZM48.54,86.28h7.39v-13.52c0-.64.52-1.15,1.15-1.15h4.48v-9.42s0-.07,0-.11v-.05c-.01-.98-.39-2.94-2.97-4.22-1.55-.82-3.58-1.23-6.09-1.23h-.56c-2.49,0-4.53.41-6.06,1.22-2.76,1.37-3.02,3.49-3,4.34,0,.02,0,.09,0,.11,0,.14,0,.25,0,.31v9.07h4.49c.64,0,1.15.52,1.15,1.15v13.52ZM32.88,88.61h-14.9c-.64,0-1.15-.52-1.15-1.15v-21.56h-7.69c-.64,0-1.15-.52-1.15-1.15v-16.37c-.03-1.53.29-4.42,2.82-7.01,2.99-3.06,8.04-4.62,15.01-4.62,6.27,0,10.93,1.5,13.84,4.45,2.79,2.82,3.16,6.12,3.14,7.84,0,.63-.55,1.15-1.16,1.17-.63,0-1.15-.49-1.15-1.12,0,0,0-.07,0-.08.02-1.35-.28-3.96-2.48-6.18-2.46-2.49-6.57-3.76-12.2-3.76-6.32,0-10.81,1.32-13.35,3.92-1.94,1.99-2.19,4.18-2.16,5.31v15.31h7.69c.64,0,1.15.52,1.15,1.15v21.56h12.59v-21.71c0-.64.52-1.15,1.15-1.15s1.15.52,1.15,1.15v22.87c0,.64-.52,1.15-1.15,1.15ZM52.21,51.19c-4.2,0-7.61-3.41-7.61-7.61s3.41-7.61,7.61-7.61,7.61,3.41,7.61,7.61-3.41,7.61-7.61,7.61ZM52.21,38.28c-2.92,0-5.3,2.38-5.3,5.3s2.38,5.3,5.3,5.3,5.3-2.38,5.3-5.3-2.38-5.3-5.3-5.3ZM77.66,40.55c-5.45,0-9.89-4.44-9.89-9.89s4.44-9.89,9.89-9.89,9.89,4.44,9.89,9.89-4.44,9.89-9.89,9.89ZM77.66,23.09c-4.18,0-7.58,3.4-7.58,7.58s3.4,7.58,7.58,7.58,7.58-3.4,7.58-7.58-3.4-7.58-7.58-7.58ZM25.36,33.75c-6.21,0-11.26-5.05-11.26-11.26s5.05-11.26,11.26-11.26,11.26,5.05,11.26,11.26-5.05,11.26-11.26,11.26ZM25.36,13.54c-4.93,0-8.95,4.01-8.95,8.95s4.01,8.95,8.95,8.95,8.95-4.01,8.95-8.95-4.01-8.95-8.95-8.95Z"></path></svg> 