<?xml version="1.0" encoding="UTF-8"?>
<svg xmlns="http://www.w3.org/2000/svg" id="Layer_1" data-name="Layer 1" viewBox="0 0 24 24">
  <path d="m23.204,6.196c-.499-.277-1.087-.261-1.605.066l-5.599,4.233v-2.948c0-.57-.298-1.075-.796-1.352-.499-.276-1.086-.262-1.594.057l-5.61,3.988V1h.5c.276,0,.5-.224.5-.5s-.224-.5-.5-.5H.5C.224,0,0,.224,0,.5s.224.5.5.5h.5v18.5c0,2.481,2.019,4.5,4.5,4.5h14c2.481,0,4.5-2.019,4.5-4.5V7.547c0-.57-.298-1.075-.796-1.352Zm-.204,13.304c0,1.93-1.57,3.5-3.5,3.5H5.5c-1.93,0-3.5-1.57-3.5-3.5V1h5v18.5c0,.276.224.5.5.5s.5-.224.5-.5v-8.031l6.165-4.384c.246-.154.469-.062.554-.014.085.047.281.187.281.477v3.953c0,.19.107.363.277.448.168.084.372.065.524-.049l6.363-4.814c.246-.154.469-.062.554-.014.085.047.281.187.281.477v11.953Zm-9.5-3.5h-1c-.827,0-1.5.673-1.5,1.5v1c0,.827.673,1.5,1.5,1.5h1c.827,0,1.5-.673,1.5-1.5v-1c0-.827-.673-1.5-1.5-1.5Zm.5,2.5c0,.276-.225.5-.5.5h-1c-.275,0-.5-.224-.5-.5v-1c0-.276.225-.5.5-.5h1c.275,0,.5.224.5.5v1Zm5.5-2.5h-1c-.827,0-1.5.673-1.5,1.5v1c0,.827.673,1.5,1.5,1.5h1c.827,0,1.5-.673,1.5-1.5v-1c0-.827-.673-1.5-1.5-1.5Zm.5,2.5c0,.276-.225.5-.5.5h-1c-.275,0-.5-.224-.5-.5v-1c0-.276.225-.5.5-.5h1c.275,0,.5.224.5.5v1Z"/>
</svg>
